<?xml version="1.0" encoding="UTF-8"?>
<!DOCTYPE svg PUBLIC "-//W3C//DTD SVG 1.1//EN" "http://www.w3.org/Graphics/SVG/1.1/DTD/svg11.dtd">
<!-- Creator: CorelDRAW -->
<svg xmlns="http://www.w3.org/2000/svg" xml:space="preserve" width="112.95mm" height="157.744mm" style="shape-rendering:geometricPrecision; text-rendering:geometricPrecision; image-rendering:optimizeQuality; fill-rule:evenodd; clip-rule:evenodd"
viewBox="0 0 67.9266 94.8651"
 xmlns:xlink="http://www.w3.org/1999/xlink">
 <defs>
  <style type="text/css">
   <![CDATA[
    .str0 {stroke:black;stroke-width:1.01832}
    .fil1 {fill:black}
    .fil0 {fill:white}
   ]]>
  </style>
 </defs>
 <g id="Layer_x0020_1">
  <metadata id="CorelCorpID_0Corel-Layer"/>
  <g id="_95067304">
   <path id="_90562504" class="fil0 str0" d="M34.0031 94.3082c0,0 -20.2078,-9.0696 -26.9702,-12.0133 -6.76245,-3.73923 -6.52376,-10.4221 -6.52376,-10.4221l0 -71.3637 66.9084 0 0 71.3636c0,0 0.23869,6.68289 -6.52376,10.4221 -6.76245,2.94366 -26.8906,12.0133 -26.8906,12.0133z"/>
   <path id="_90562816" class="fil1" d="M34.0031 6.28068c-2.90385,3.21843 -2.94366,7.24933 -2.94366,7.99192 0,4.26959 0.556882,11.8542 0.556882,20.1547 0,12.9947 -6.23197,21.6397 -6.23197,21.6397 0,0 -0.106084,0.212289 -1.37904,0.212289 -1.27295,0 -4.0309,-1.03426 -4.0309,-4.08388 0,-3.04992 3.36787,-3.89836 4.00432,-3.89836 0.636445,0 0.954698,0.105964 0.954698,0.105964 0,0 -0.636445,-5.56912 -2.06852,-18.1393 -2.78453,-13.4453 -12.8884,-18.1393 -12.8884,-18.1393l0 58.157 13.4719 0c0,0 0.981279,8.19447 8.16795,13.4189 0,0 2.28063,1.9622 2.38678,2.5987 0.106144,-0.636445 2.38672,-2.5987 2.38672,-2.5987 7.18655,-5.22429 8.16783,-13.4189 8.16783,-13.4189l13.4719 0 0 -58.157c0,0 -10.1039,4.69393 -12.8884,18.1393 -1.43202,12.5701 -2.06852,18.1392 -2.06852,18.1392 0,0 0.318253,-0.105964 0.954698,-0.105964 0.636445,0 4.00432,0.848554 4.00432,3.89836 0,3.0498 -2.75795,4.08406 -4.0309,4.08406 -1.27295,0 -1.37904,-0.212289 -1.37904,-0.212289 0,0 -6.23197,-8.64527 -6.23197,-21.6398 0,-8.30055 0.556882,-15.8852 0.556882,-20.1547 0,-0.74259 -0.0397515,-4.77349 -2.9436,-7.99192l0 -0.000120277z"/>
   <g>
    <path id="_90563008" class="fil0" d="M53.9456 20.6903c0,0 -3.65955,4.5612 -4.72033,9.91822 -0.583463,4.93256 -1.75027,14.5327 -1.75027,14.5327 0,0 3.50054,1.48506 4.29617,5.14473 0.689427,0 2.17449,0 2.17449,0l-6.01385e-005 -29.5956z"/>
    <path id="_90563200" class="fil0" d="M44.1865 60.3633c0.848554,0 6.4442,-0.821973 7.5846,-6.04644l2.17449 0 0 12.0398 -8.91054 0c0,0 0,-3.28843 -0.848554,-5.9934z"/>
    <path id="_90563296" class="fil0" d="M40.8716 66.3037l-4.85299 0c0,0 0.156601,-4.2913 4.21661,-4.93262 0.344593,1.11382 0.636385,2.46634 0.636385,4.93262z"/>
    <path id="_90563440" class="fil0" d="M36.0716 70.2816l4.13699 0c0,0 -0.450918,4.79989 -4.13705,8.22093 6.01385e-005,-2.17449 6.01385e-005,-8.22093 6.01385e-005,-8.22093z"/>
    <path id="_90563584" class="fil0" d="M14.0606 20.6903c0,0 3.65955,4.5612 4.72033,9.91822 0.583463,4.93256 1.75027,14.5328 1.75027,14.5328 0,0 -3.50054,1.48488 -4.29617,5.14455 -0.689427,0 -2.17449,0 -2.17449,0l6.01385e-005 -29.5955z"/>
    <path id="_90563776" class="fil0" d="M23.8196 60.3633c-0.848554,0 -6.4442,-0.821973 -7.5846,-6.04644l-2.17443 0 0 12.0397 8.91048 0c0,0 0,-3.28831 0.848554,-5.99328z"/>
    <path id="_90563872" class="fil0" d="M27.1345 66.3037l4.85305 0c0,0 -0.156601,-4.29148 -4.21661,-4.93262 -0.344593,1.11382 -0.636445,2.46634 -0.636445,4.93262z"/>
    <path id="_90564016" class="fil0" d="M31.9346 70.2816l-4.13705 0c0,0 0.450918,4.79989 4.13705,8.22093 0,-2.17449 0,-8.22093 0,-8.22093z"/>
    <path id="_90564208" class="fil0" d="M34.0031 46.5733c0,0 -1.77667,6.57674 -4.61437,10.8729 1.06066,0.689427 4.61437,3.10278 4.61437,3.10278 0,0 3.55364,-2.4133 4.6143,-3.10278 -2.83769,-4.29617 -4.6143,-10.8729 -4.6143,-10.8729z"/>
   </g>
  </g>
 </g>
</svg>
